<?xml version="1.0" standalone="no"?>
<!DOCTYPE svg PUBLIC "-//W3C//DTD SVG 20010904//EN"
 "http://www.w3.org/TR/2001/REC-SVG-20010904/DTD/svg10.dtd">
<svg version="1.0" xmlns="http://www.w3.org/2000/svg"
 width="908.000000pt" height="1024.000000pt" viewBox="0 0 908.000000 1024.000000"
 preserveAspectRatio="xMidYMid meet">

<g transform="translate(0.000000,1024.000000) scale(0.100000,-0.100000)"
fill="#000000" stroke="none">
<path d="M4221 7020 c-89 -24 -162 -56 -238 -107 -83 -55 -1418 -1389 -1474
-1472 -137 -207 -176 -492 -98 -725 81 -245 276 -434 534 -516 106 -34 301
-39 416 -12 47 12 112 32 143 46 137 61 181 101 859 782 362 364 679 688 704
720 53 69 115 193 139 279 9 33 19 114 21 180 4 99 1 135 -16 207 -39 166
-110 286 -242 414 -108 103 -238 173 -390 209 -92 21 -265 19 -358 -5z m344
-166 c179 -43 356 -179 435 -334 84 -164 88 -401 11 -566 -45 -97 -101 -160
-413 -471 l-283 -282 -462 452 -462 452 327 328 c180 180 348 341 374 358 124
80 302 104 473 63z m-494 -1897 c-69 -71 -216 -216 -327 -322 -181 -173 -209
-197 -285 -233 -139 -68 -272 -86 -416 -56 -198 41 -358 166 -447 349 -46 95
-60 161 -60 280 0 126 14 186 71 305 l46 95 310 312 310 313 462 -458 462
-457 -126 -128z"/>
<path d="M4029 6543 c-131 -128 -139 -139 -139 -175 0 -47 28 -78 71 -78 26 0
47 15 118 82 204 196 201 192 201 231 0 43 -37 77 -82 77 -25 0 -53 -23 -169
-137z"/>
<path d="M2988 5513 c-118 -112 -230 -246 -262 -313 -55 -117 -37 -210 41
-210 40 0 83 37 83 72 0 57 49 128 184 266 146 151 154 166 115 216 -16 20
-29 26 -60 26 -35 0 -48 -7 -101 -57z"/>
<path d="M2954 3650 c-55 -22 -69 -91 -30 -137 50 -58 156 -22 156 53 0 62
-70 108 -126 84z"/>
<path d="M5524 3637 c-40 -35 -41 -98 -1 -133 39 -33 81 -31 118 5 36 36 38
79 7 116 -34 38 -87 44 -124 12z"/>
<path d="M2425 3616 c-120 -55 -166 -182 -110 -300 26 -55 84 -92 199 -128
114 -35 156 -67 156 -117 0 -100 -152 -127 -295 -52 -27 14 -53 27 -57 29 -5
2 -8 -31 -8 -73 l0 -76 56 -26 c76 -34 196 -42 279 -18 179 52 234 265 98 384
-34 30 -71 49 -154 76 -115 39 -149 64 -149 112 0 33 40 70 85 79 52 9 142
-11 198 -46 27 -17 50 -30 53 -30 2 0 4 34 4 75 0 66 -2 76 -22 89 -78 50
-250 61 -333 22z"/>
<path d="M3600 3494 l0 -136 -29 25 c-95 79 -274 51 -352 -55 -101 -141 -64
-379 71 -448 97 -49 192 -47 274 7 l39 25 -7 -26 -7 -27 73 3 73 3 3 383 2
382 -70 0 -70 0 0 -136z m-70 -206 c56 -29 70 -56 70 -141 0 -122 -38 -167
-142 -167 -102 0 -156 68 -146 185 5 64 29 102 79 127 46 24 86 23 139 -4z"/>
<path d="M4395 3603 c3 -16 33 -120 65 -233 32 -113 77 -274 100 -357 l42
-153 77 0 77 0 72 243 c40 134 72 249 72 255 0 7 3 12 8 12 4 0 32 -87 62
-193 29 -105 63 -220 73 -255 l19 -63 76 3 75 3 13 40 c32 102 204 673 210
698 l6 27 -75 0 -75 0 -11 -47 c-15 -62 -132 -503 -138 -523 -3 -8 -7 -10 -8
-5 -6 18 -134 489 -145 533 l-11 42 -64 0 c-36 0 -65 -2 -65 -6 0 -3 -30 -109
-66 -237 -36 -128 -73 -257 -82 -287 l-15 -55 -67 265 c-36 146 -70 277 -73
293 -7 26 -9 27 -83 27 l-76 0 7 -27z"/>
<path d="M4018 3417 c-61 -20 -123 -71 -146 -119 -80 -164 -29 -354 115 -424
51 -25 69 -29 148 -29 76 0 99 4 148 27 l57 27 0 60 c0 34 -3 61 -7 61 -3 0
-36 -12 -72 -26 -52 -21 -77 -25 -128 -22 -73 5 -107 25 -140 84 l-22 39 202
5 202 5 -3 62 c-5 116 -48 195 -126 233 -55 26 -174 35 -228 17z m178 -131
c21 -21 34 -44 34 -60 l0 -26 -125 0 c-81 0 -125 4 -125 10 0 24 31 69 62 89
20 13 50 21 77 21 36 0 49 -6 77 -34z"/>
<path d="M5905 3421 c-105 -27 -158 -102 -141 -196 11 -56 64 -101 149 -126
109 -31 128 -40 137 -63 29 -78 -120 -97 -239 -30 -24 13 -46 22 -49 20 -7 -7
-6 -122 2 -134 24 -40 226 -61 309 -33 110 37 155 149 102 252 -20 37 -52 55
-152 84 -97 28 -129 51 -118 84 14 46 143 51 228 7 l43 -21 -2 60 c-2 59 -3
60 -41 79 -42 20 -177 31 -228 17z"/>
<path d="M6453 3421 c-90 -23 -161 -95 -184 -186 -16 -62 -7 -180 18 -235 66
-149 258 -202 431 -119 l42 21 0 63 0 64 -65 -30 c-117 -55 -229 -38 -273 40
-12 21 -22 44 -22 50 0 8 59 11 196 11 l197 0 -5 84 c-6 108 -37 164 -115 208
-56 31 -158 45 -220 29z m143 -116 c32 -13 64 -61 64 -95 0 -6 -47 -10 -130
-10 -84 0 -130 4 -130 10 0 25 33 72 63 90 38 24 85 25 133 5z"/>
<path d="M5507 3414 c-4 -4 -7 -130 -7 -281 l0 -273 75 0 75 0 -2 277 -3 276
-65 4 c-36 3 -69 1 -73 -3z"/>
<path d="M2910 3135 l0 -275 70 0 70 0 0 275 0 275 -70 0 -70 0 0 -275z"/>
</g>
</svg>
